<svg width="140" height="36" xmlns="http://www.w3.org/2000/svg" xmlns:xlink="http://www.w3.org/1999/xlink"><defs><path id="a" d="M0 .439h28.54v20.47H0z"/><path id="c" d="M0 1.087h28.54V21.56H0z"/></defs><g fill="none" fill-rule="evenodd"><g transform="translate(0 .914)"><mask id="b" fill="#fff"><use xlink:href="#a"/></mask><path d="M28.48.439c-1.106 0-1.82 1.696-2.579 3.493-.972 2.307-2.075 4.918-4.56 4.918-2.385 0-3.305-2.384-4.119-4.486-.869-2.255-1.549-3.732-3.011-3.732-1.467 0-2.148 1.477-3.019 3.732C10.38 6.466 9.46 8.85 7.071 8.85c-2.482 0-3.583-2.61-4.553-4.915C1.775 2.168 1.071.506 0 .445V12.5c1.85.046 2.745 2.164 3.61 4.217.867 2.06 1.766 4.192 3.461 4.192 1.466 0 2.147-1.477 3.016-3.731.812-2.103 1.734-4.488 4.124-4.488 2.385 0 3.305 2.385 4.117 4.488.87 2.254 1.55 3.731 3.013 3.731 1.7 0 2.599-2.133 3.47-4.195.874-2.074 1.777-4.219 3.669-4.219h.06V.44h-.06Z" fill="#009EDB" mask="url(#b)"/></g><g transform="translate(0 13.64)"><mask id="d" fill="#fff"><use xlink:href="#c"/></mask><path d="M28.48 1.087c-1.106 0-1.82 1.697-2.579 3.493-.972 2.307-2.075 4.92-4.56 4.92-2.385 0-3.305-2.385-4.119-4.487-.869-2.256-1.549-3.732-3.011-3.732-1.467 0-2.148 1.476-3.019 3.732C10.38 7.115 9.46 9.5 7.071 9.5c-2.482 0-3.583-2.611-4.553-4.918C1.775 2.818 1.071 1.155 0 1.094V13.15c1.85.046 2.745 2.164 3.61 4.216.867 2.06 1.766 4.193 3.461 4.193 1.466 0 2.147-1.476 3.016-3.731.812-2.103 1.734-4.488 4.124-4.488 2.385 0 3.305 2.385 4.117 4.488.87 2.254 1.55 3.731 3.013 3.731 1.7 0 2.599-2.134 3.47-4.197.874-2.073 1.777-4.217 3.669-4.217h.06V1.087h-.06Z" fill="#8ABD43" mask="url(#d)"/></g><path d="m51.44 31.98 3.108-9.098c.134-.418.399-.606.816-.606.493 0 .815.321.815.815 0 .074-.02.207-.058.322l-3.847 11.143c-.113.342-.341.645-.853.645-.397 0-.682-.209-.795-.549l-3.071-9.116-3.07 9.116c-.115.34-.398.549-.797.549-.511 0-.74-.303-.853-.645l-3.847-11.143a1.163 1.163 0 0 1-.057-.322c0-.494.322-.815.816-.815.416 0 .682.188.814.606l3.108 9.098 3.071-9.117c.133-.36.38-.587.815-.587.436 0 .682.227.816.587l3.07 9.117ZM66.185 35.201c-.531 0-.891-.397-.891-.89V23.164c0-.491.36-.89.89-.89.531 0 .892.399.892.89V34.31c0 .494-.36.891-.891.891M72.174 35.277c-1.193 0-2.254-.38-3.014-.967a.947.947 0 0 1-.378-.738c0-.38.303-.627.682-.627.303 0 .493.114.701.266.512.378 1.232.739 2.142.739 1.024 0 1.573-.378 1.573-.966 0-.644-.532-.891-1.858-1.251-2.331-.625-3.184-1.422-3.184-2.786 0-1.422 1.308-2.351 3.355-2.351.776 0 1.65.19 2.35.53.512.247.872.55.872.93 0 .34-.19.663-.682.663-.247 0-.494-.114-.777-.265a3.715 3.715 0 0 0-1.801-.437c-.947 0-1.593.247-1.593.91 0 .646.57.853 1.934 1.252 2.046.588 3.109 1.137 3.109 2.672 0 1.403-1.176 2.426-3.431 2.426M84.303 35.201c-.53 0-.89-.397-.89-.89v-3.79c0-1.328-.721-2.313-2.143-2.313-1.42 0-2.236 1.042-2.236 2.33v3.772c0 .494-.378.891-.89.891-.532 0-.892-.397-.892-.89V23.183c0-.567.38-.908.891-.908.494 0 .891.283.891.908v5.005c.53-1.024 1.478-1.593 2.731-1.593 2.18 0 3.43 1.612 3.43 3.848v3.866c0 .474-.324.891-.892.891M63.626 30.956c0 .302-.17.608-.682.608h-5.667c.095 1.306.986 2.292 2.56 2.292.984 0 1.572-.342 2.197-.929.152-.151.36-.285.588-.285.398 0 .74.285.74.74 0 .189-.096.36-.228.511-.72.835-2.01 1.385-3.374 1.385-2.824 0-4.321-1.972-4.321-4.342 0-2.483 1.8-4.34 4.246-4.34 2.387 0 3.941 1.934 3.941 4.36m-3.941-2.938c-1.309 0-2.2.928-2.37 2.104h4.663c-.153-1.138-1.005-2.104-2.293-2.104M104.034 31.98l3.107-9.098c.133-.418.4-.606.816-.606.493 0 .815.321.815.815 0 .074-.019.207-.057.322l-3.849 11.143c-.113.342-.34.645-.852.645-.397 0-.682-.209-.797-.549l-3.07-9.116-3.07 9.116c-.114.34-.397.549-.796.549-.51 0-.74-.303-.853-.645l-3.846-11.143a1.163 1.163 0 0 1-.058-.322c0-.494.324-.815.816-.815.416 0 .682.188.814.606l3.109 9.098 3.07-9.117c.132-.36.379-.587.814-.587.438 0 .682.227.817.587l3.07 9.117ZM120.75 35.201c-.53 0-.891-.397-.891-.89V28.3h-1.44a.728.728 0 0 1-.74-.737c0-.418.322-.74.74-.74h1.44v-2.483c0-.492.36-.89.89-.89s.892.398.892.89v2.483h1.629c.419 0 .74.322.74.74a.728.728 0 0 1-.74.738h-1.63v6.008c0 .494-.36.891-.89.891M132.519 30.956c0 .302-.17.608-.682.608h-5.667c.095 1.306.986 2.292 2.557 2.292.987 0 1.575-.342 2.2-.929.152-.151.36-.285.588-.285.398 0 .74.285.74.74 0 .189-.096.36-.229.511-.72.835-2.008 1.385-3.374 1.385-2.823 0-4.32-1.972-4.32-4.342 0-2.483 1.8-4.34 4.245-4.34 2.388 0 3.942 1.934 3.942 4.36m-3.942-2.938c-1.308 0-2.2.928-2.37 2.104h4.664c-.152-1.138-1.005-2.104-2.294-2.104M138.186 28.302c-1.498 0-2.408.986-2.408 2.9v3.11c0 .491-.378.89-.89.89-.568 0-.89-.399-.89-.89v-6.73c0-.53.38-.91.91-.91.51 0 .87.36.87.91v.814c.322-1.078 1.215-1.761 2.408-1.761.51 0 .833.36.833.835 0 .472-.36.832-.833.832M116.789 30.841v-3.374c0-.494-.343-.89-.891-.89a.84.84 0 0 0-.857.713c-.686-.454-1.56-.712-2.591-.712-2.675 0-4.38 1.971-4.38 4.34 0 2.409 1.535 4.342 4.188 4.342 1.232 0 2.237-.587 2.768-1.383v.416c0 .494.342.89.873.89.549 0 .891-.396.891-.89v-3.374c0-.028-.004-.054-.004-.083l.003.005Zm-4.36 2.902c-1.686 0-2.577-1.194-2.577-2.824 0-1.555 1.062-2.823 2.576-2.823 1.519 0 2.58 1.08 2.58 2.823 0 1.48-1.004 2.824-2.58 2.824ZM43.756 14.123H40.25a.93.93 0 0 1-.93-.928V2.43c0-.512.418-.929.93-.929h3.506c3.905 0 6.33 2.692 6.33 6.311 0 3.62-2.425 6.312-6.33 6.312M43.7 3.167H41.14v9.289h2.558c2.9 0 4.568-1.934 4.568-4.645 0-2.71-1.668-4.644-4.568-4.644M59.676 11.412l1.668-5.098c.133-.396.36-.568.72-.568.417 0 .816.246.816.759 0 .094-.038.245-.077.34l-2.331 6.92c-.114.321-.341.51-.738.51-.399 0-.646-.21-.759-.531l-1.933-5.25-1.914 5.25c-.114.303-.342.53-.759.53-.416 0-.663-.208-.74-.51l-2.33-6.92a1.092 1.092 0 0 1-.076-.34c0-.512.398-.758.816-.758.359 0 .586.172.719.568l1.668 5.098 1.895-5.136c.114-.322.322-.53.72-.53.4 0 .608.208.721.53l1.914 5.136Zm-.34-7.865a.646.646 0 0 1 .208.473c0 .322-.304.588-.626.588a.59.59 0 0 1-.416-.151l-1.46-1.328-1.46 1.328a.59.59 0 0 1-.416.151c-.324 0-.626-.266-.626-.588 0-.19.076-.34.208-.473l1.838-1.65c.153-.132.285-.19.456-.19.17 0 .303.058.454.19l1.84 1.65ZM68.49 7.375c-1.499 0-2.408.985-2.408 2.9v3.11c0 .491-.379.89-.89.89-.57 0-.891-.399-.891-.89V6.656c0-.53.379-.91.91-.91.511 0 .871.36.871.91v.814c.322-1.078 1.213-1.762 2.407-1.762.512 0 .834.36.834.835 0 .473-.36.832-.834.832M109.827 14.275a.878.878 0 0 1-.89-.891v-3.79c0-1.309-.624-2.313-2.028-2.313-1.403 0-2.254 1.08-2.254 2.332v3.77c0 .493-.344.892-.894.892-.53 0-.89-.399-.89-.891v-3.79c0-1.309-.681-2.313-2.085-2.313-1.438 0-2.198 1.08-2.198 2.332v3.77c0 .493-.36.892-.89.892a.878.878 0 0 1-.89-.891V6.656c0-.53.339-.91.89-.91.606 0 .89.418.89.91v.606c.511-1.004 1.555-1.592 2.674-1.592 1.364 0 2.387.682 2.899 1.686.74-1.136 1.82-1.686 3.164-1.686 2.295 0 3.393 1.573 3.393 3.791v3.923c0 .492-.36.89-.89.89M116.329 7.375c-1.497 0-2.408.985-2.408 2.9v3.11c0 .491-.378.89-.89.89-.569 0-.89-.399-.89-.89V6.656c0-.53.377-.91.908-.91.513 0 .872.36.872.91v.814c.322-1.078 1.214-1.762 2.408-1.762.51 0 .832.36.832.835a.815.815 0 0 1-.832.832M118.242 10.39V6.636a.89.89 0 0 1 .89-.89.89.89 0 0 1 .892.89v3.961c0 1.194.929 2.123 2.178 2.123 1.253 0 2.201-.93 2.201-2.123v-3.96c0-.494.397-.892.89-.892s.89.398.89.891v3.752c0 2.217-1.687 3.961-3.98 3.961s-3.961-1.744-3.961-3.96M94.732 5.706c-.436 0-.683.209-.836.647l-2.184 5.908L89.28 6.2c-.132-.303-.362-.494-.76-.494-.419 0-.798.266-.798.798 0 .115.038.247.076.362l3.133 7.509-1.19 3.224s-.047.176-.047.273a.81.81 0 0 0 1.569.287h.001S95.117 7.772 95.417 6.94c.037-.094.076-.285.076-.416 0-.591-.4-.819-.76-.819M86.876 3.357c.151.19.247.398.247.647 0 .472-.324.795-.815.795-.36 0-.607-.209-.795-.438-.817-.908-1.916-1.44-3.3-1.44-3.07 0-4.682 2.218-4.682 4.89 0 2.675 1.612 4.892 4.683 4.892 1.383 0 2.482-.531 3.299-1.442.188-.228.435-.436.795-.436.491 0 .815.322.815.796 0 .247-.096.456-.247.644-.948 1.195-2.69 2.086-4.777 2.086-3.96 0-6.405-2.996-6.405-6.54 0-3.543 2.446-6.539 6.405-6.539 2.086 0 3.829.893 4.777 2.085" fill="#009EDB"/></g></svg>
