<?xml version="1.0" encoding="utf-8"?>
<!-- Generator: Adobe Illustrator 27.7.0, SVG Export Plug-In . SVG Version: 6.00 Build 0)  -->
<!DOCTYPE svg PUBLIC "-//W3C//DTD SVG 1.1//EN" "http://www.w3.org/Graphics/SVG/1.1/DTD/svg11.dtd" [
	<!ENTITY ns_extend "http://ns.adobe.com/Extensibility/1.0/">
	<!ENTITY ns_ai "http://ns.adobe.com/AdobeIllustrator/10.0/">
	<!ENTITY ns_graphs "http://ns.adobe.com/Graphs/1.0/">
	<!ENTITY ns_vars "http://ns.adobe.com/Variables/1.0/">
	<!ENTITY ns_imrep "http://ns.adobe.com/ImageReplacement/1.0/">
	<!ENTITY ns_sfw "http://ns.adobe.com/SaveForWeb/1.0/">
	<!ENTITY ns_custom "http://ns.adobe.com/GenericCustomNamespace/1.0/">
	<!ENTITY ns_adobe_xpath "http://ns.adobe.com/XPath/1.0/">
]>
<svg version="1.1" id="Layer_1" xmlns:x="&ns_extend;" xmlns:i="&ns_ai;" xmlns:graph="&ns_graphs;"
	 xmlns="http://www.w3.org/2000/svg" xmlns:xlink="http://www.w3.org/1999/xlink" x="0px" y="0px" viewBox="0 0 432.1 149.5"
	 style="enable-background:new 0 0 432.1 149.5;" xml:space="preserve">
<style type="text/css">
	.st0{fill-rule:evenodd;clip-rule:evenodd;fill:#009FBE;}
	.st1{fill-rule:evenodd;clip-rule:evenodd;fill:#F08100;}
	.st2{fill:#F08100;}
	.st3{fill:#009FBE;}
	.st4{fill:#65696B;}
	.st5{fill-rule:evenodd;clip-rule:evenodd;fill:#65696B;}
</style>
<metadata>
	<sfw  xmlns="&ns_sfw;">
		<slices></slices>
		<sliceSourceBounds  bottomLeftOrigin="true" height="147.5" width="430.8" x="205.8" y="223.3"></sliceSourceBounds>
	</sfw>
</metadata>
<path class="st0" d="M125.4,77.3c0,10.6-8.9,21-19.8,21c-7.8,0-12.5-5-12.5-12.7c0-10.6,8.9-21,19.8-21
	C120.7,64.6,125.4,69.6,125.4,77.3 M135.3,77.2c0-12.7-9.2-21.2-21.7-21.2c-16,0-30.3,13.5-30.3,29.7c0,12.7,9.2,21.2,21.7,21.2
	C120.9,106.9,135.3,93.4,135.3,77.2z"/>
<path class="st0" d="M209.2,77.3c0,10.6-8.9,21-19.8,21c-7.8,0-12.5-5-12.5-12.7c0-10.6,8.9-21,19.8-21
	C204.5,64.6,209.2,69.6,209.2,77.3 M219,77.2c0-12.7-9.2-21.2-21.7-21.2c-16,0-30.3,13.5-30.3,29.7c0,12.7,9.2,21.2,21.7,21.2
	C204.7,106.9,219,93.4,219,77.2z"/>
<path class="st1" d="M332.2,77.3c0,10.6-8.9,21-19.8,21c-7.8,0-12.5-5-12.5-12.7c0-10.6,8.9-21,19.8-21
	C327.5,64.6,332.2,69.6,332.2,77.3 M342,77.2c0-12.7-9.2-21.2-21.7-21.2c-16,0-30.3,13.5-30.3,29.7c0,12.7,9.2,21.2,21.7,21.2
	C327.7,106.9,342,93.4,342,77.2z"/>
<path class="st2" d="M397.9,37.5h-9.1l-23.7,41.3c-1.8,3.1-4,7.4-5.8,11h-0.2c-0.5-3.6-1.2-7.9-1.9-11l-5-21.6h-9.4l11.6,49.4h4
	L397.9,37.5"/>
<path class="st1" d="M421.8,77.3c0,10.6-8.9,21-19.8,21c-7.8,0-12.5-5-12.5-12.7c0-10.6,8.9-21,19.8-21
	C417.1,64.6,421.8,69.6,421.8,77.3 M431.7,77.2c0-12.7-9.2-21.2-21.7-21.2c-16,0-30.3,13.5-30.3,29.7c0,12.7,9.2,21.2,21.7,21.2
	C417.3,106.9,431.7,93.4,431.7,77.2z"/>
<path class="st3" d="M79.8,37.4h-7.6L51.8,72.5c-3.3,5.7-7.1,12.3-9.6,17.6H42c-1.8-5.2-4.9-12.3-7.3-17.6L18.9,37.4h-7.3L0.9,105.7
	h10.2L16,74.9c0.6-4.1,1.5-10.1,2.1-15.3h0.2c2,5,4.5,11.1,6.5,15.6l13.9,31.1h4.5l18-31.1c2.5-4.4,6.3-11,8.8-15.9h0.2
	c-0.1,5,0,10.9,0,15.5l0.6,30.8h10.3L79.8,37.4"/>
<path class="st3" d="M172.1,57.2H155l1-14.9l-10,5l-0.7,9.9h-9.5l-0.6,7.8h9.5L143,90.9c-0.1,1,0,2,0.1,3
	c0.8,7.8,7.1,12.3,14.6,12.3c1.7,0,4.8-0.4,6.3-1.1l0.6-7.8c-1.5,0.6-3.8,1-5.5,1c-3.5,0-6-1.3-6.4-5.1c-0.1-0.8-0.1-1.6,0-2.4
	l1.8-25.8h15.4L172.1,57.2"/>
<path class="st2" d="M289.2,37.4h-10.4l-2.2,32.8c-0.3,4.9-0.7,10.8-0.9,16.2l-0.2,0.1c-3.9-5.2-9.5-12.1-13.2-16.5l-27.2-32.5H228
	l-4.8,68.3h10.4l2.4-34.7c0.3-5.2,0.9-11,1.1-17.4l0.2-0.1c4.4,5.7,9.7,12.5,14.4,18.2l29.6,35.5h3.1L289.2,37.4"/>
<path class="st4" d="M252.9,1.8c-19,1.2-30.6,2.5-30.6,2.5c0,0,11.8,0.3,30.7,0.7c18.9,0.6,45.2,0.8,73.4,4.1c7,0.9,13.8,2,20,3.7
	c3.1,0.8,6,1.8,8.6,3.1c1.3,0.6,2.5,1.3,3.5,2c0.5,0.4,1,0.8,1.5,1.1l0.6,0.6c1.9,1.4,4,1,4,1c12.1-1.3,23.1-0.4,31.9,2
	c8.8,2.3,15.2,5.9,19.4,8.6c4.2,2.7,6.2,4.6,6.2,4.5c0,0-1.7-2-5.5-5.3c-3.8-3.2-9.8-7.6-18.9-10.9c-8.8-3.2-20.5-5.1-33.2-4.4
	c-0.6-0.5-1.2-1.1-1.8-1.5c-1.4-1-2.9-1.9-4.4-2.8c-3.1-1.6-6.4-2.8-9.8-3.9c-6.8-2-13.9-3.3-21.2-4.2c-13.9-1.6-27.1-2.1-39.2-2.1
	C274.9,0.6,262.9,1.2,252.9,1.8"/>
<path class="st4" d="M238.4,13.1c-1.1,0-1.6,0.1-1.7,0.1c0.2,0.1,12.2-0.1,30.2,4.9c9.1,2.5,19.8,6.2,31.5,10.6
	c11.8,4.4,24.7,9.5,38.9,13.1c7.1,1.8,14.3,3.1,21.3,3.4c3.5,0.2,7,0.1,10.3-0.2l2.5-0.3l0.6-0.1l0.2,0l0.1,0h0
	c1.6-0.2,1.8-2.3,1.7-1.7l0-0.3l0.2-1.1c0.2-1.5,0.6-2.9,1.1-4.2c1.8-5.5,6.9-8.6,12.1-8.8c5.2-0.3,10.2,1.5,13.7,4.2
	c3.6,2.6,5.5,7.5,4.4,10.1c0,0-0.6,1.5-0.2,1.8c0.5,0.2,2.1-0.1,2.1-0.1c0.9-0.1,1.7-0.2,2.5-0.3c1.6-0.2,3.1-0.6,4.4-0.9
	c5.2-1.3,7.8-2.8,7.8-2.7c0,0-2.8,1.1-8,2.1c-1.3,0.2-2.8,0.4-4.4,0.5c-0.8,0-2.4,0.2-2.9,0.2l-0.1-0.2c1.4-3.1-0.4-9.1-4.3-12.2
	c-3.8-3.2-9.2-5.5-15.2-5.5c-6-0.2-13,3.8-15.4,10.4c-0.7,1.6-1.2,3.2-1.4,4.9l0,0l-1.9,0.2c-3.2,0.2-6.5,0.2-9.8,0
	c-6.7-0.4-13.5-1.7-20.5-3.5c-13.9-3.5-26.8-8.4-38.8-12.4c-11.9-4.1-22.9-7.3-32.2-9.3C255.9,13.4,247,13,241.8,13
	C240.3,13,239.2,13,238.4,13.1 M236.7,13.1C236.6,13.1,236.6,13.1,236.7,13.1C236.6,13.1,236.6,13.1,236.7,13.1z"/>
<g>
	<polyline class="st4" points="237.8,122.8 238.1,119.1 222.4,119.1 220.1,147.4 224.4,147.4 225.4,135 235,135 235.3,131.3 
		225.7,131.3 226.4,122.8 237.8,122.8 	"/>
	<polyline class="st4" points="250,147.4 252.2,119.1 247.9,119.1 245.6,147.4 250,147.4 	"/>
	<path class="st4" d="M287.9,148.1l2.3-29h-4.3l-1.1,13.4c-0.2,2-0.4,4.5-0.5,6.7l-0.1,0c-1.6-2.1-3.9-5-5.4-6.8l-11.1-13.3h-3
		l-2.3,28.4h4.3l1.1-14.2c0.2-2.1,0.4-4.5,0.5-7.1l0.1,0c1.8,2.3,4,5.2,5.9,7.5l12.1,14.5L287.9,148.1"/>
	<path class="st5" d="M315.7,136.7h-8.1l3.3-6.9c0.5-0.9,1.1-2.3,1.5-3.5h0.1c0.3,1.2,0.6,2.5,0.9,3.5L315.7,136.7 M323.7,147.4
		l-9.8-28.8h-1.5L298,147.4h4.2l3.7-7.3h11l2.5,7.3H323.7z"/>
	<path class="st4" d="M359.2,148.1l2.3-29h-4.3l-1.1,13.4c-0.2,2-0.4,4.5-0.4,6.7l-0.1,0c-1.6-2.1-3.9-5-5.4-6.8L339,119.1h-3
		l-2.3,28.4h4.3l1.1-14.2c0.2-2.1,0.4-4.5,0.5-7.1l0.1,0c1.8,2.3,4,5.2,5.9,7.5l12.1,14.5L359.2,148.1"/>
	<path class="st4" d="M395.6,120.6c-1.7-1-4.3-1.8-8.1-1.8c-6.9,0-15.4,4.8-16.2,14.5c-0.8,9.5,6.8,14.4,13.9,14.4
		c3.5,0,5.6-0.4,7.4-1.3l0.7-3.9c-1.8,1-4.1,1.6-7.4,1.6c-5.6,0-10.9-3.5-10.3-10.7c0.6-7.2,6.6-10.7,12-10.7c2.9,0,5.6,0.9,6.9,1.8
		L395.6,120.6"/>
	<polyline class="st4" points="421.3,147.4 421.6,143.7 409,143.7 409.8,135 419,135 419.2,131.3 410,131.3 410.7,122.8 
		421.7,122.8 422,119.1 406.7,119.1 404.4,147.4 421.3,147.4 	"/>
</g>
</svg>
